<svg width="460" height="462" viewBox="0 0 460 462" fill="none" xmlns="http://www.w3.org/2000/svg">
<circle cx="229.5" cy="324.5" r="22.5" fill="white"/>
<path d="M67.104 209.048C71.712 201.56 78.336 195.512 86.976 190.904C95.616 186.296 105.504 183.992 116.64 183.992C129.888 183.992 141.888 187.352 152.64 194.072C163.392 200.792 171.84 210.392 177.984 222.872C184.32 235.352 187.488 249.848 187.488 266.36C187.488 282.872 184.32 297.464 177.984 310.136C171.84 322.616 163.392 332.312 152.64 339.224C141.888 345.944 129.888 349.304 116.64 349.304C105.312 349.304 95.424 347.096 86.976 342.68C78.528 338.072 71.904 332.024 67.104 324.536V347H17.856V133.88H67.104V209.048ZM137.376 266.36C137.376 254.072 133.92 244.472 127.008 237.56C120.288 230.456 111.936 226.904 101.952 226.904C92.16 226.904 83.808 230.456 76.896 237.56C70.176 244.664 66.816 254.36 66.816 266.648C66.816 278.936 70.176 288.632 76.896 295.736C83.808 302.84 92.16 306.392 101.952 306.392C111.744 306.392 120.096 302.84 127.008 295.736C133.92 288.44 137.376 278.648 137.376 266.36Z" fill="white"/>
<path d="M272.064 266.36C272.064 249.848 275.136 235.352 281.28 222.872C287.616 210.392 296.16 200.792 306.912 194.072C317.664 187.352 329.664 183.992 342.912 183.992C354.24 183.992 364.128 186.296 372.576 190.904C381.216 195.512 387.84 201.56 392.448 209.048V186.296H441.696V347H392.448V324.248C387.648 331.736 380.928 337.784 372.288 342.392C363.84 347 353.952 349.304 342.624 349.304C329.568 349.304 317.664 345.944 306.912 339.224C296.16 332.312 287.616 322.616 281.28 310.136C275.136 297.464 272.064 282.872 272.064 266.36ZM392.448 266.648C392.448 254.36 388.992 244.664 382.08 237.56C375.36 230.456 367.104 226.904 357.312 226.904C347.52 226.904 339.168 230.456 332.256 237.56C325.536 244.472 322.176 254.072 322.176 266.36C322.176 278.648 325.536 288.44 332.256 295.736C339.168 302.84 347.52 306.392 357.312 306.392C367.104 306.392 375.36 302.84 382.08 295.736C388.992 288.632 392.448 278.936 392.448 266.648Z" fill="white"/>
<path d="M219.391 138.985C211.565 91.952 178.304 72.3551 147 41C199.826 66.476 239.096 94.476 238.957 187.977C267.48 122.003 287.677 109.777 327 107.63C271.184 129.962 255.067 183.251 229.174 285.962C223.797 288.268 227.217 186.017 219.391 138.985Z" fill="#0ABF4A"/>
<path d="M104.686 22.7651C177.56 5.7303 204.409 26.4734 226.255 93.3533C214.49 3.20588 177.235 -16.4093 89 14.9366C98.8039 77.7157 131.251 91.4624 190.961 103.157C144.613 87.6863 123.457 73.0878 104.686 22.7651Z" fill="#0ABF4A"/>
<path d="M370.961 87.7226C327.824 75.8543 292.529 79.8569 269 113.109C283.571 66.4753 333.706 50.3731 388.608 79.8569C378.804 130.756 351.196 149.561 290.569 146.546C343.153 135.889 362.676 122.765 370.961 87.7226Z" fill="#0ABF4A"/>
<circle cx="267.375" cy="31.375" r="31.375" fill="#FD8701"/>
</svg>
